<?xml version="1.0" standalone="no"?>
<!DOCTYPE svg PUBLIC "-//W3C//DTD SVG 20010904//EN"
 "http://www.w3.org/TR/2001/REC-SVG-20010904/DTD/svg10.dtd">
<svg version="1.0" xmlns="http://www.w3.org/2000/svg"
 width="512.000000pt" height="512.000000pt" viewBox="0 0 512.000000 512.000000"
 preserveAspectRatio="xMidYMid meet">
<metadata>
Created by potrace 1.14, written by Peter Selinger 2001-2017
</metadata>
<g transform="translate(0.000000,512.000000) scale(0.100000,-0.100000)"
fill="#000000" stroke="none">
<path d="M2540 5101 c-8 -9 -40 -46 -70 -81 -30 -36 -61 -71 -68 -78 -21 -23
-137 -192 -193 -282 -98 -158 -244 -472 -298 -642 l-12 -37 -79 98 c-101 125
-261 278 -378 361 -159 112 -376 228 -406 217 -16 -6 -52 -163 -74 -312 -9
-67 -9 -365 1 -440 20 -163 77 -414 102 -455 3 -5 -45 20 -107 56 -62 37 -178
102 -258 145 l-145 78 -6 -32 c-6 -36 -3 -458 4 -497 3 -14 8 -54 12 -90 14
-147 75 -433 118 -560 25 -76 112 -235 167 -308 115 -153 257 -272 430 -361
36 -19 67 -35 69 -37 2 -2 -46 -3 -107 -3 -125 0 -163 -11 -213 -62 -59 -60
-74 -139 -43 -215 35 -85 102 -126 209 -129 l70 -2 11 -34 c7 -19 14 -54 18
-79 3 -25 15 -92 26 -150 45 -239 93 -495 111 -595 25 -145 68 -265 116 -327
51 -65 148 -149 207 -178 139 -69 135 -68 806 -69 525 -1 613 1 669 15 143 36
252 110 340 229 80 109 87 137 211 805 28 151 55 299 61 327 l10 53 57 0 c82
0 128 16 176 61 66 60 84 153 47 234 -40 88 -102 117 -248 118 -57 0 -103 1
-103 3 0 1 32 19 72 39 210 107 391 282 507 489 76 135 144 367 187 641 33
210 46 705 18 705 -7 0 -33 -11 -56 -24 -24 -12 -83 -45 -133 -72 -49 -26
-139 -77 -199 -111 -60 -35 -110 -62 -112 -61 -1 2 11 50 27 107 16 58 36 141
44 185 8 45 17 97 21 116 3 19 8 123 9 230 4 207 -5 301 -47 478 -22 91 -23
93 -48 87 -76 -18 -292 -140 -428 -242 -95 -72 -289 -264 -361 -360 l-55 -71
-51 136 c-89 233 -211 473 -337 660 -70 103 -266 344 -279 341 -2 0 -11 -8
-19 -18z"/>
</g>
</svg>
